<?xml version="1.0" encoding="UTF-8" standalone="no"?>
<!-- Created with Inkscape (http://www.inkscape.org/) -->

<svg
   xmlns:dc="http://purl.org/dc/elements/1.1/"
   xmlns:cc="http://creativecommons.org/ns#"
   xmlns:rdf="http://www.w3.org/1999/02/22-rdf-syntax-ns#"
   xmlns:svg="http://www.w3.org/2000/svg"
   xmlns="http://www.w3.org/2000/svg"
   xmlns:sodipodi="http://sodipodi.sourceforge.net/DTD/sodipodi-0.dtd"
   xmlns:inkscape="http://www.inkscape.org/namespaces/inkscape"
   width="8.6202269mm"
   height="8.6202269mm"
   viewBox="0 0 8.6202269 8.6202269"
   version="1.1"
   id="svg7045"
   inkscape:version="0.92.5 (2060ec1f9f, 2020-04-08)"
   sodipodi:docname="codepen.svg">
  <defs
     id="defs7039" />
  <sodipodi:namedview
     id="base"
     pagecolor="#ffffff"
     bordercolor="#666666"
     borderopacity="1.0"
     inkscape:pageopacity="0.0"
     inkscape:pageshadow="2"
     inkscape:zoom="0.35"
     inkscape:cx="-729.42411"
     inkscape:cy="319.14733"
     inkscape:document-units="mm"
     inkscape:current-layer="layer1"
     showgrid="false"
     fit-margin-top="0"
     fit-margin-left="0"
     fit-margin-right="0"
     fit-margin-bottom="0"
     inkscape:window-width="1920"
     inkscape:window-height="1004"
     inkscape:window-x="1280"
     inkscape:window-y="0"
     inkscape:window-maximized="1" />
  <metadata
     id="metadata7042">
    <rdf:RDF>
      <cc:Work
         rdf:about="">
        <dc:format>image/svg+xml</dc:format>
        <dc:type
           rdf:resource="http://purl.org/dc/dcmitype/StillImage" />
        <dc:title></dc:title>
      </cc:Work>
    </rdf:RDF>
  </metadata>
  <g
     inkscape:label="Vrstva 1"
     inkscape:groupmode="layer"
     id="layer1"
     transform="translate(-154.43989,-224.65417)">
    <g
       id="_x36__stroke"
       transform="matrix(0.06734552,0,0,0.06734552,154.43989,224.65417)">
      <g
         id="Codepen">
        <rect
           id="rect881"
           width="128"
           height="128"
           x="0"
           y="0"
           style="clip-rule:evenodd;fill:none;fill-rule:evenodd" />
        <path
           id="Codepen_1_"
           d="M 117,73.204 103.24,64 117,54.796 Z M 69.5,112.22 V 86.568 L 93.348,70.62 112.596,83.492 Z M 64,77.012 44.548,64 64,50.988 83.456,64 Z M 58.5,112.22 15.404,83.492 34.656,70.62 58.5,86.568 Z M 11,54.796 24.764,64 11,73.204 Z M 58.5,15.78 V 41.432 L 34.656,57.384 15.404,44.508 Z m 11,0 43.096,28.728 L 93.348,57.384 69.5,41.432 Z m 58.452,28.004 c -0.012,-0.084 -0.032,-0.16 -0.044,-0.24 -0.028,-0.156 -0.056,-0.312 -0.096,-0.46 -0.024,-0.092 -0.06,-0.18 -0.088,-0.268 -0.044,-0.136 -0.088,-0.268 -0.14,-0.4 -0.036,-0.092 -0.08,-0.184 -0.124,-0.268 -0.056,-0.128 -0.116,-0.248 -0.188,-0.364 -0.048,-0.088 -0.104,-0.172 -0.156,-0.256 -0.072,-0.116 -0.148,-0.228 -0.232,-0.336 -0.06,-0.08 -0.124,-0.16 -0.188,-0.236 -0.088,-0.104 -0.18,-0.204 -0.276,-0.3 -0.072,-0.072 -0.14,-0.148 -0.216,-0.212 -0.104,-0.092 -0.208,-0.18 -0.312,-0.264 -0.084,-0.064 -0.164,-0.128 -0.248,-0.188 -0.032,-0.02 -0.06,-0.048 -0.092,-0.068 l -58.5,-39 c -1.848,-1.232 -4.252,-1.232 -6.104,0 l -58.496,39 C 2.42,39.944 2.392,39.972 2.36,39.992 2.272,40.052 2.192,40.116 2.112,40.18 2.004,40.264 1.9,40.352 1.8,40.444 1.724,40.508 1.652,40.584 1.58,40.656 1.484,40.752 1.392,40.852 1.308,40.956 1.24,41.032 1.176,41.112 1.116,41.192 1.036,41.3 0.96,41.412 0.888,41.528 0.832,41.612 0.78,41.696 0.728,41.784 0.66,41.9 0.6,42.02 0.54,42.148 0.5,42.232 0.456,42.324 0.42,42.416 c -0.056,0.132 -0.1,0.264 -0.144,0.4 -0.028,0.088 -0.06,0.176 -0.084,0.268 -0.04,0.148 -0.068,0.304 -0.096,0.46 C 0.08,43.624 0.06,43.7 0.052,43.784 0.02,44.016 0,44.256 0,44.5 v 39 c 0,0.24 0.02,0.48 0.052,0.72 0.008,0.076 0.028,0.156 0.044,0.236 0.028,0.156 0.056,0.308 0.096,0.46 0.024,0.092 0.056,0.18 0.084,0.268 0.044,0.132 0.088,0.268 0.144,0.404 0.036,0.088 0.08,0.176 0.12,0.264 0.06,0.124 0.12,0.244 0.188,0.368 0.052,0.084 0.104,0.168 0.16,0.252 0.072,0.116 0.148,0.224 0.228,0.332 0.06,0.084 0.124,0.164 0.192,0.24 0.084,0.1 0.176,0.204 0.272,0.296 0.072,0.076 0.144,0.148 0.22,0.216 0.1,0.092 0.204,0.18 0.312,0.264 0.08,0.064 0.16,0.128 0.248,0.188 0.032,0.02 0.06,0.048 0.092,0.068 l 58.496,39 C 61.872,127.692 62.936,128 64,128 c 1.064,0 2.128,-0.308 3.052,-0.924 l 58.5,-39 c 0.032,-0.02 0.06,-0.048 0.092,-0.068 0.084,-0.06 0.164,-0.124 0.248,-0.188 0.104,-0.084 0.208,-0.172 0.312,-0.264 0.076,-0.068 0.144,-0.14 0.216,-0.216 0.096,-0.092 0.188,-0.196 0.276,-0.296 0.064,-0.076 0.128,-0.156 0.188,-0.24 0.084,-0.108 0.16,-0.216 0.232,-0.332 0.052,-0.084 0.108,-0.168 0.156,-0.252 0.072,-0.124 0.132,-0.244 0.188,-0.368 0.044,-0.088 0.088,-0.176 0.124,-0.264 0.052,-0.136 0.096,-0.272 0.14,-0.404 0.028,-0.088 0.064,-0.176 0.088,-0.268 0.04,-0.152 0.068,-0.304 0.096,-0.46 0.012,-0.08 0.032,-0.16 0.044,-0.236 C 127.984,83.98 128,83.74 128,83.5 v -39 c 0,-0.244 -0.016,-0.484 -0.048,-0.716 z"
           inkscape:connector-curvature="0"
           style="clip-rule:evenodd;fill:#0b0b0a;fill-rule:evenodd" />
      </g>
    </g>
  </g>
</svg>
