<?xml version="1.0" encoding="UTF-8" standalone="no"?>
<!-- Created with Inkscape (http://www.inkscape.org/) -->

<svg
   xmlns:dc="http://purl.org/dc/elements/1.1/"
   xmlns:cc="http://creativecommons.org/ns#"
   xmlns:rdf="http://www.w3.org/1999/02/22-rdf-syntax-ns#"
   xmlns:svg="http://www.w3.org/2000/svg"
   xmlns="http://www.w3.org/2000/svg"
   xmlns:sodipodi="http://sodipodi.sourceforge.net/DTD/sodipodi-0.dtd"
   xmlns:inkscape="http://www.inkscape.org/namespaces/inkscape"
   width="8.1364403mm"
   height="6.2983971mm"
   viewBox="0 0 8.1364403 6.2983971"
   version="1.1"
   id="svg7637"
   inkscape:version="0.92.5 (2060ec1f9f, 2020-04-08)"
   sodipodi:docname="discord.svg">
  <defs
     id="defs7631" />
  <sodipodi:namedview
     id="base"
     pagecolor="#ffffff"
     bordercolor="#666666"
     borderopacity="1.0"
     inkscape:pageopacity="0.0"
     inkscape:pageshadow="2"
     inkscape:zoom="0.35"
     inkscape:cx="-661.7669"
     inkscape:cy="126.1882"
     inkscape:document-units="mm"
     inkscape:current-layer="layer1"
     showgrid="false"
     fit-margin-top="0"
     fit-margin-left="0"
     fit-margin-right="0"
     fit-margin-bottom="-0.6"
     inkscape:window-width="1920"
     inkscape:window-height="1004"
     inkscape:window-x="1280"
     inkscape:window-y="0"
     inkscape:window-maximized="1" />
  <metadata
     id="metadata7634">
    <rdf:RDF>
      <cc:Work
         rdf:about="">
        <dc:format>image/svg+xml</dc:format>
        <dc:type
           rdf:resource="http://purl.org/dc/dcmitype/StillImage" />
        <dc:title></dc:title>
      </cc:Work>
    </rdf:RDF>
  </metadata>
  <g
     inkscape:label="Vrstva 1"
     inkscape:groupmode="layer"
     id="layer1"
     transform="translate(-136.53892,-175.92223)">
    <g
       id="g970"
       transform="matrix(0.03178297,0,0,0.03178297,136.53892,175.92223)"
       style="stroke-width:8.32468891">
      <path
         id="path968"
         d="M 216.85634,16.596603 C 200.285,8.8432867 182.56614,3.2084988 164.04156,0 c -2.27504,4.1131811 -4.93294,9.6454991 -6.76546,14.046438 -19.69211,-2.961448 -39.20313,-2.961448 -58.533084,0 C 96.910842,9.6454991 94.192584,4.1131811 91.897189,0 73.352607,3.2084988 55.613395,8.8639912 39.042058,16.637661 5.6175229,67.146514 -3.4433191,116.40081 1.0871107,164.95572 23.25602,181.51091 44.740363,191.5677 65.862133,198.14858 c 5.215082,-7.17745 9.86623,-14.80725 13.873081,-22.84832 -7.631195,-2.89969 -14.940242,-6.47806 -21.846427,-10.6323 1.832174,-1.35737 3.624343,-2.77651 5.355803,-4.2367 42.12282,19.70193 87.89034,19.70193 129.50993,0 1.75182,1.46019 3.54363,2.87933 5.35581,4.2367 -6.92654,4.1746 -14.25559,7.75297 -21.88679,10.653 4.00685,8.02037 8.638,15.67087 13.87308,22.84797 21.14213,-6.58088 42.6464,-16.63731 64.81533,-33.21321 5.3158,-56.28752 -9.08086,-105.089477 -38.05561,-148.359117 z M 85.473875,135.09489 c -12.644847,0 -23.014653,-11.80473 -23.014653,-26.17999 0,-14.375253 10.148373,-26.200341 23.014653,-26.200341 12.866631,0 23.236085,11.804384 23.014655,26.200341 0.02,14.37526 -10.148024,26.17999 -23.014655,26.17999 z m 85.051365,0 c -12.64485,0 -23.01466,-11.80473 -23.01466,-26.17999 0,-14.375253 10.14803,-26.200341 23.01466,-26.200341 12.86628,0 23.23608,11.804384 23.01465,26.200341 0,14.37526 -10.14837,26.17999 -23.01465,26.17999 z"
         inkscape:connector-curvature="0"
         style="fill:#5865f2;fill-rule:nonzero;stroke-width:8.32468891" />
    </g>
  </g>
</svg>
