<?xml version="1.0" encoding="UTF-8" standalone="no"?>
<!-- Created with Inkscape (http://www.inkscape.org/) -->

<svg
   xmlns:dc="http://purl.org/dc/elements/1.1/"
   xmlns:cc="http://creativecommons.org/ns#"
   xmlns:rdf="http://www.w3.org/1999/02/22-rdf-syntax-ns#"
   xmlns:svg="http://www.w3.org/2000/svg"
   xmlns="http://www.w3.org/2000/svg"
   xmlns:sodipodi="http://sodipodi.sourceforge.net/DTD/sodipodi-0.dtd"
   xmlns:inkscape="http://www.inkscape.org/namespaces/inkscape"
   width="6.35006mm"
   height="6.1934319mm"
   viewBox="0 0 6.35006 6.1934319"
   version="1.1"
   id="svg1594"
   inkscape:version="0.92.5 (2060ec1f9f, 2020-04-08)"
   sodipodi:docname="github.svg">
  <defs
     id="defs1588" />
  <sodipodi:namedview
     id="base"
     pagecolor="#ffffff"
     bordercolor="#666666"
     borderopacity="1.0"
     inkscape:pageopacity="0.0"
     inkscape:pageshadow="2"
     inkscape:zoom="0.35"
     inkscape:cx="-792.2856"
     inkscape:cy="314.56127"
     inkscape:document-units="mm"
     inkscape:current-layer="layer1"
     showgrid="false"
     fit-margin-top="0"
     fit-margin-left="0"
     fit-margin-right="0"
     fit-margin-bottom="0"
     inkscape:window-width="1920"
     inkscape:window-height="1004"
     inkscape:window-x="1280"
     inkscape:window-y="0"
     inkscape:window-maximized="1" />
  <metadata
     id="metadata1591">
    <rdf:RDF>
      <cc:Work
         rdf:about="">
        <dc:format>image/svg+xml</dc:format>
        <dc:type
           rdf:resource="http://purl.org/dc/dcmitype/StillImage" />
        <dc:title></dc:title>
      </cc:Work>
    </rdf:RDF>
  </metadata>
  <g
     inkscape:label="Vrstva 1"
     inkscape:groupmode="layer"
     id="layer1"
     transform="translate(-117.77735,-225.86757)">
    <path
       id="path945"
       d="m 120.95235,225.86757 c -1.75313,0 -3.175,1.42161 -3.175,3.175 0,1.40282 0.90964,2.59292 2.17143,3.01281 0.15849,0.0294 0.20982,-0.0691 0.20982,-0.15266 v -0.59108 c -0.88318,0.19209 -1.06707,-0.37465 -1.06707,-0.37465 -0.14446,-0.36698 -0.35269,-0.46461 -0.35269,-0.46461 -0.28813,-0.19711 0.022,-0.19288 0.022,-0.19288 0.31883,0.0222 0.48657,0.32729 0.48657,0.32729 0.28311,0.48524 0.74269,0.34501 0.92393,0.26379 0.0283,-0.20505 0.11059,-0.34528 0.20161,-0.42439 -0.70511,-0.0807 -1.44648,-0.35296 -1.44648,-1.56925 0,-0.34687 0.12409,-0.62997 0.32703,-0.85222 -0.0328,-0.0802 -0.14155,-0.40323 0.031,-0.84032 0,0 0.2667,-0.0852 0.87338,0.32544 0.25321,-0.0704 0.52467,-0.10557 0.79455,-0.10689 0.26987,0.001 0.5416,0.0365 0.79534,0.10689 0.60616,-0.41063 0.87233,-0.32544 0.87233,-0.32544 0.17277,0.43736 0.064,0.76042 0.0312,0.84032 0.20373,0.22225 0.32676,0.50562 0.32676,0.85222 0,1.21947 -0.74269,1.48802 -1.44965,1.5666 0.11377,0.0984 0.21775,0.29157 0.21775,0.5879 v 0.87128 c 0,0.0844 0.0508,0.18362 0.21193,0.1524 1.26074,-0.42043 2.16932,-1.61026 2.16932,-3.01255 0,-1.75339 -1.42161,-3.175 -3.175,-3.175 z"
       inkscape:connector-curvature="0"
       style="fill:#000000;fill-opacity:1;stroke-width:0.26458332" />
  </g>
</svg>
