<?xml version="1.0" encoding="UTF-8" standalone="no"?>
<!-- Created with Inkscape (http://www.inkscape.org/) -->

<svg
   xmlns:dc="http://purl.org/dc/elements/1.1/"
   xmlns:cc="http://creativecommons.org/ns#"
   xmlns:rdf="http://www.w3.org/1999/02/22-rdf-syntax-ns#"
   xmlns:svg="http://www.w3.org/2000/svg"
   xmlns="http://www.w3.org/2000/svg"
   xmlns:sodipodi="http://sodipodi.sourceforge.net/DTD/sodipodi-0.dtd"
   xmlns:inkscape="http://www.inkscape.org/namespaces/inkscape"
   width="10.205357mm"
   height="3.96875mm"
   viewBox="0 0 10.205357 3.96875"
   version="1.1"
   id="svg5886"
   inkscape:version="0.92.5 (2060ec1f9f, 2020-04-08)"
   sodipodi:docname="npm.svg">
  <defs
     id="defs5880" />
  <sodipodi:namedview
     id="base"
     pagecolor="#ffffff"
     bordercolor="#666666"
     borderopacity="1.0"
     inkscape:pageopacity="0.0"
     inkscape:pageshadow="2"
     inkscape:zoom="0.35"
     inkscape:cx="-643.57142"
     inkscape:cy="424.64287"
     inkscape:document-units="mm"
     inkscape:current-layer="layer1"
     showgrid="false"
     fit-margin-top="0"
     fit-margin-left="0"
     fit-margin-right="0"
     fit-margin-bottom="0"
     inkscape:window-width="1920"
     inkscape:window-height="1004"
     inkscape:window-x="1280"
     inkscape:window-y="0"
     inkscape:window-maximized="1" />
  <metadata
     id="metadata5883">
    <rdf:RDF>
      <cc:Work
         rdf:about="">
        <dc:format>image/svg+xml</dc:format>
        <dc:type
           rdf:resource="http://purl.org/dc/dcmitype/StillImage" />
        <dc:title></dc:title>
      </cc:Work>
    </rdf:RDF>
  </metadata>
  <g
     inkscape:label="Vrstva 1"
     inkscape:groupmode="layer"
     id="layer1"
     transform="translate(-131.7247,-257.21801)">
    <g
       id="g976"
       transform="matrix(0.56696427,0,0,0.56696427,131.7247,257.21801)">
      <path
         id="path956"
         d="M 0,0 H 18 V 6 H 9 V 7 H 5 V 6 H 0 Z M 1,5 H 3 V 2 H 4 V 5 H 5 V 1 H 1 Z M 6,1 V 6 H 8 V 5 h 2 V 1 Z M 8,2 H 9 V 4 H 8 Z m 3,-1 v 4 h 2 V 2 h 1 v 3 h 1 V 2 h 1 v 3 h 1 V 1 Z"
         inkscape:connector-curvature="0"
         style="fill:#cb3837" />
      <polygon
         id="polygon958"
         points="3,5 3,2 4,2 4,5 5,5 5,1 1,1 1,5 "
         style="fill:#ffffff" />
      <path
         id="path960"
         d="M 6,1 V 6 H 8 V 5 h 2 V 1 Z M 9,4 H 8 V 2 h 1 z"
         inkscape:connector-curvature="0"
         style="fill:#ffffff" />
      <polygon
         id="polygon962"
         points="14,5 15,5 15,2 16,2 16,5 17,5 17,1 11,1 11,5 13,5 13,2 14,2 "
         style="fill:#ffffff" />
    </g>
  </g>
</svg>
